<svg width="65" height="61" viewBox="0 0 65 61" fill="none" xmlns="http://www.w3.org/2000/svg">
<path opacity="0.5" d="M64.0671 0.410504L48.388 55.9541C48.3083 56.2062 47.9894 56.2819 47.8034 56.1054L37.3064 46.1464L45.1725 18.3115C45.2522 18.0594 45.0131 17.8325 44.7473 17.9081L15.409 25.3711L4.96515 15.4625C4.77913 15.286 4.85885 14.9834 5.1246 14.9078L63.6419 0.00710022C63.9076 -0.0433252 64.1468 0.183589 64.0671 0.410504Z" fill="#008787"/>
<path opacity="0.5" d="M37.3058 46.1459L33.2665 60.5171C33.1868 60.7693 32.8679 60.8449 32.6818 60.6684L0.101381 29.7828C-0.0846408 29.6063 -0.00491742 29.3038 0.260829 29.2282L15.4084 25.3706L37.3058 46.1459Z" fill="#008787"/>
<path d="M15.4 25.37L45.4999 17.5L44.2999 21.5L18 27.83L15.4 25.37Z" fill="#008787"/>
<path d="M37.3089 46.15L18.0021 27.832L20.6119 24.7637L38.34 42.5L37.3089 46.15Z" fill="#008787"/>
<rect x="34.4707" y="41.5192" width="10.9659" height="4" transform="rotate(-74.3557 34.4707 41.5192)" fill="#008787"/>
</svg>
