<svg width="205" height="61" viewBox="0 0 205 61" fill="none" xmlns="http://www.w3.org/2000/svg">
<path opacity="0.5" d="M64.0671 0.410504L48.388 55.9541C48.3083 56.2062 47.9894 56.2819 47.8034 56.1054L37.3064 46.1464L45.1725 18.3115C45.2522 18.0594 45.0131 17.8325 44.7473 17.9081L15.409 25.3711L4.96515 15.4625C4.77913 15.286 4.85885 14.9834 5.1246 14.9078L63.6419 0.00710022C63.9076 -0.0433252 64.1468 0.183589 64.0671 0.410504Z" fill="#008787"/>
<path opacity="0.5" d="M37.3058 46.1459L33.2665 60.5171C33.1868 60.7693 32.8679 60.8449 32.6818 60.6684L0.101381 29.7828C-0.0846408 29.6063 -0.00491742 29.3038 0.260829 29.2282L15.4084 25.3706L37.3058 46.1459Z" fill="#008787"/>
<path d="M15.4 25.37L45.4999 17.5L44.2999 21.5L18 27.83L15.4 25.37Z" fill="#008787"/>
<path d="M37.3089 46.15L18.0021 27.832L20.6119 24.7637L38.34 42.5L37.3089 46.15Z" fill="#008787"/>
<rect x="34.4707" y="41.5192" width="10.9659" height="4" transform="rotate(-74.3557 34.4707 41.5192)" fill="#008787"/>
<path opacity="0.5" d="M99.0781 27.1367V38.4062C98.6354 38.9401 97.9518 39.5195 97.0273 40.1445C96.1029 40.7565 94.9115 41.2839 93.4531 41.7266C91.9948 42.1693 90.2305 42.3906 88.1602 42.3906C86.3242 42.3906 84.651 42.0911 83.1406 41.4922C81.6302 40.8802 80.3281 39.9883 79.2344 38.8164C78.1536 37.6445 77.3203 36.2122 76.7344 34.5195C76.1484 32.8138 75.8555 30.8672 75.8555 28.6797V26.9023C75.8555 24.7148 76.1354 22.7682 76.6953 21.0625C77.2682 19.3568 78.082 17.918 79.1367 16.7461C80.1914 15.5742 81.4479 14.6823 82.9062 14.0703C84.3646 13.4583 85.9857 13.1523 87.7695 13.1523C90.2435 13.1523 92.2747 13.556 93.8633 14.3633C95.4518 15.1576 96.6628 16.2643 97.4961 17.6836C98.3424 19.0898 98.8633 20.7044 99.0586 22.5273H93.375C93.2318 21.5638 92.9583 20.724 92.5547 20.0078C92.151 19.2917 91.5716 18.7318 90.8164 18.3281C90.0742 17.9245 89.1107 17.7227 87.9258 17.7227C86.9492 17.7227 86.0768 17.9245 85.3086 18.3281C84.5534 18.7188 83.9154 19.2982 83.3945 20.0664C82.8737 20.8346 82.4766 21.7852 82.2031 22.918C81.9297 24.0508 81.793 25.3659 81.793 26.8633V28.6797C81.793 30.1641 81.9362 31.4792 82.2227 32.625C82.5091 33.7578 82.9323 34.7148 83.4922 35.4961C84.0651 36.2643 84.7682 36.8438 85.6016 37.2344C86.4349 37.625 87.4049 37.8203 88.5117 37.8203C89.4362 37.8203 90.2044 37.7422 90.8164 37.5859C91.4414 37.4297 91.9427 37.2409 92.3203 37.0195C92.7109 36.7852 93.0104 36.5638 93.2188 36.3555V31.3164H87.8672V27.1367H99.0781ZM114.547 27.5859V32H103.512V27.5859H114.547ZM125.445 13.5625V42H119.586V13.5625H125.445ZM136.773 25.7109V30.2812H123.844V25.7109H136.773ZM138.141 13.5625V18.1523H123.844V13.5625H138.141ZM150.484 42.3906C148.844 42.3906 147.372 42.1302 146.07 41.6094C144.768 41.0755 143.661 40.3398 142.75 39.4023C141.852 38.4648 141.161 37.3776 140.68 36.1406C140.198 34.8906 139.957 33.5625 139.957 32.1562V31.375C139.957 29.7734 140.185 28.3086 140.641 26.9805C141.096 25.6523 141.747 24.5 142.594 23.5234C143.453 22.5469 144.495 21.7982 145.719 21.2773C146.943 20.7435 148.323 20.4766 149.859 20.4766C151.357 20.4766 152.685 20.724 153.844 21.2188C155.003 21.7135 155.973 22.4167 156.754 23.3281C157.548 24.2396 158.147 25.3333 158.551 26.6094C158.954 27.8724 159.156 29.2786 159.156 30.8281V33.1719H142.359V29.4219H153.629V28.9922C153.629 28.2109 153.486 27.5143 153.199 26.9023C152.926 26.2773 152.509 25.7826 151.949 25.418C151.389 25.0534 150.673 24.8711 149.801 24.8711C149.059 24.8711 148.421 25.0339 147.887 25.3594C147.353 25.6849 146.917 26.1406 146.578 26.7266C146.253 27.3125 146.005 28.0026 145.836 28.7969C145.68 29.5781 145.602 30.4375 145.602 31.375V32.1562C145.602 33.0026 145.719 33.7839 145.953 34.5C146.201 35.2161 146.546 35.8346 146.988 36.3555C147.444 36.8763 147.991 37.2799 148.629 37.5664C149.28 37.8529 150.016 37.9961 150.836 37.9961C151.852 37.9961 152.796 37.8008 153.668 37.4102C154.553 37.0065 155.315 36.401 155.953 35.5938L158.688 38.5625C158.245 39.2005 157.639 39.8125 156.871 40.3984C156.116 40.9844 155.204 41.4661 154.137 41.8438C153.069 42.2083 151.852 42.3906 150.484 42.3906ZM172.086 42.3906C170.445 42.3906 168.974 42.1302 167.672 41.6094C166.37 41.0755 165.263 40.3398 164.352 39.4023C163.453 38.4648 162.763 37.3776 162.281 36.1406C161.799 34.8906 161.559 33.5625 161.559 32.1562V31.375C161.559 29.7734 161.786 28.3086 162.242 26.9805C162.698 25.6523 163.349 24.5 164.195 23.5234C165.055 22.5469 166.096 21.7982 167.32 21.2773C168.544 20.7435 169.924 20.4766 171.461 20.4766C172.958 20.4766 174.286 20.724 175.445 21.2188C176.604 21.7135 177.574 22.4167 178.355 23.3281C179.15 24.2396 179.749 25.3333 180.152 26.6094C180.556 27.8724 180.758 29.2786 180.758 30.8281V33.1719H163.961V29.4219H175.23V28.9922C175.23 28.2109 175.087 27.5143 174.801 26.9023C174.527 26.2773 174.111 25.7826 173.551 25.418C172.991 25.0534 172.275 24.8711 171.402 24.8711C170.66 24.8711 170.022 25.0339 169.488 25.3594C168.954 25.6849 168.518 26.1406 168.18 26.7266C167.854 27.3125 167.607 28.0026 167.438 28.7969C167.281 29.5781 167.203 30.4375 167.203 31.375V32.1562C167.203 33.0026 167.32 33.7839 167.555 34.5C167.802 35.2161 168.147 35.8346 168.59 36.3555C169.046 36.8763 169.592 37.2799 170.23 37.5664C170.882 37.8529 171.617 37.9961 172.438 37.9961C173.453 37.9961 174.397 37.8008 175.27 37.4102C176.155 37.0065 176.917 36.401 177.555 35.5938L180.289 38.5625C179.846 39.2005 179.241 39.8125 178.473 40.3984C177.717 40.9844 176.806 41.4661 175.738 41.8438C174.671 42.2083 173.453 42.3906 172.086 42.3906ZM196.441 37.3906V12H202.105V42H197.008L196.441 37.3906ZM183.082 31.6875V31.2773C183.082 29.6628 183.264 28.1979 183.629 26.8828C183.993 25.5547 184.527 24.4154 185.23 23.4648C185.934 22.5143 186.799 21.7786 187.828 21.2578C188.857 20.737 190.029 20.4766 191.344 20.4766C192.581 20.4766 193.661 20.737 194.586 21.2578C195.523 21.7786 196.318 22.5208 196.969 23.4844C197.633 24.4349 198.167 25.5612 198.57 26.8633C198.974 28.1523 199.267 29.5651 199.449 31.1016V32C199.267 33.4714 198.974 34.8385 198.57 36.1016C198.167 37.3646 197.633 38.4714 196.969 39.4219C196.318 40.3594 195.523 41.0885 194.586 41.6094C193.648 42.1302 192.555 42.3906 191.305 42.3906C189.99 42.3906 188.818 42.1237 187.789 41.5898C186.773 41.056 185.914 40.3073 185.211 39.3438C184.521 38.3802 183.993 37.2474 183.629 35.9453C183.264 34.6432 183.082 33.224 183.082 31.6875ZM188.707 31.2773V31.6875C188.707 32.5599 188.772 33.3737 188.902 34.1289C189.046 34.8841 189.273 35.5547 189.586 36.1406C189.911 36.7135 190.328 37.1628 190.836 37.4883C191.357 37.8008 191.988 37.957 192.73 37.957C193.694 37.957 194.488 37.7422 195.113 37.3125C195.738 36.8698 196.214 36.2643 196.539 35.4961C196.878 34.7279 197.073 33.8424 197.125 32.8398V30.2812C197.086 29.4609 196.969 28.7253 196.773 28.0742C196.591 27.4102 196.318 26.8438 195.953 26.375C195.602 25.9062 195.159 25.5417 194.625 25.2812C194.104 25.0208 193.486 24.8906 192.77 24.8906C192.04 24.8906 191.415 25.0599 190.895 25.3984C190.374 25.724 189.951 26.1732 189.625 26.7461C189.312 27.319 189.078 27.9961 188.922 28.7773C188.779 29.5456 188.707 30.3789 188.707 31.2773Z" fill="#008787"/>
</svg>
